<svg version="1.1" id="Layer_1" xmlns="http://www.w3.org/2000/svg" xmlns:xlink="http://www.w3.org/1999/xlink" x="0px" y="0px"
	 width="100%" viewBox="0 0 843 843" enable-background="new 0 0 843 843" xml:space="preserve">
<path fill="#000000" opacity="1.000000" stroke="none" 
	d="
M476.000000,844.000000 
	C317.333374,844.000000 159.166763,844.000000 1.000106,844.000000 
	C1.000071,563.000122 1.000071,282.000275 1.000035,1.000295 
	C281.999786,1.000196 562.999573,1.000196 843.999512,1.000098 
	C843.999634,281.999695 843.999634,562.999390 843.999817,843.999512 
	C721.500000,844.000000 599.000000,844.000000 476.000000,844.000000 
M222.092590,370.493591 
	C224.434357,386.771179 226.852234,403.038300 229.100006,419.328857 
	C232.463455,443.705170 235.561661,468.118774 239.038086,492.478638 
	C243.579224,524.299072 248.389099,556.081116 253.064789,587.882385 
	C256.328491,610.080017 259.471924,632.295959 262.913116,654.465820 
	C263.375549,657.445068 264.743317,660.615173 266.602356,662.981689 
	C271.428314,669.124878 276.758240,674.872375 281.893250,680.772400 
	C303.725464,705.857422 325.573425,730.928772 347.388092,756.028992 
	C359.044861,769.441467 370.616974,782.927551 382.281158,796.333557 
	C390.803070,806.128052 399.160339,816.083984 408.056824,825.529114 
	C416.443542,834.433105 425.026123,834.259888 433.522186,825.450989 
	C444.577026,813.989441 455.524658,802.420044 466.323730,790.717407 
	C488.137054,767.078857 509.783295,743.286133 531.567200,719.620300 
	C547.578369,702.225891 563.419128,684.659180 579.920044,667.738953 
	C585.821838,661.687134 587.871521,654.765686 588.983215,647.086243 
	C592.172302,625.055969 595.146179,602.994080 598.426697,580.977661 
	C601.189758,562.434021 604.384949,543.954834 607.171875,525.414551 
	C611.398865,497.293579 615.343872,469.130188 619.580200,441.010651 
	C625.066956,404.590729 630.662415,368.186829 636.325745,331.793884 
	C640.364746,305.838593 644.604004,279.914551 648.728455,253.972504 
	C649.727600,247.687866 648.154541,242.101776 643.723999,237.478851 
	C624.487183,217.406570 605.158508,197.422073 585.974487,177.299515 
	C565.545227,155.870743 545.250305,134.313873 524.880432,112.828415 
	C498.204773,84.691856 471.523560,56.560555 444.806854,28.463041 
	C442.867096,26.423008 440.768250,24.468327 438.486755,22.831684 
	C431.981079,18.164804 424.418396,18.557774 418.362000,23.773033 
	C410.676605,30.391052 403.052032,37.079704 395.404205,43.741325 
	C374.880585,61.618362 354.394501,79.538788 333.825073,97.362999 
	C315.313538,113.403961 296.649872,129.269608 278.164490,145.340454 
	C254.843735,165.615036 231.653244,186.039398 208.365494,206.352051 
	C203.273285,210.793716 200.466003,216.052124 201.404755,222.975739 
	C203.927795,241.583740 206.327560,260.209015 208.952179,278.802582 
	C213.226685,309.084503 217.641098,339.346710 222.092590,370.493591 
z"/>
<path fill="#FCFCFC" opacity="1.000000" stroke="none" 
	d="
M222.044525,370.055420 
	C217.641098,339.346710 213.226685,309.084503 208.952179,278.802582 
	C206.327560,260.209015 203.927795,241.583740 201.404755,222.975739 
	C200.466003,216.052124 203.273285,210.793716 208.365494,206.352051 
	C231.653244,186.039398 254.843735,165.615036 278.164490,145.340454 
	C296.649872,129.269608 315.313538,113.403961 333.825073,97.362999 
	C354.394501,79.538788 374.880585,61.618362 395.404205,43.741325 
	C403.052032,37.079704 410.676605,30.391052 418.362000,23.773033 
	C424.418396,18.557774 431.981079,18.164804 438.486755,22.831684 
	C440.768250,24.468327 442.867096,26.423008 444.806854,28.463041 
	C471.523560,56.560555 498.204773,84.691856 524.880432,112.828415 
	C545.250305,134.313873 565.545227,155.870743 585.974487,177.299515 
	C605.158508,197.422073 624.487183,217.406570 643.723999,237.478851 
	C648.154541,242.101776 649.727600,247.687866 648.728455,253.972504 
	C644.604004,279.914551 640.364746,305.838593 636.325745,331.793884 
	C630.662415,368.186829 625.066956,404.590729 619.580200,441.010651 
	C615.343872,469.130188 611.398865,497.293579 607.171875,525.414551 
	C604.384949,543.954834 601.189758,562.434021 598.426697,580.977661 
	C595.146179,602.994080 592.172302,625.055969 588.983215,647.086243 
	C587.871521,654.765686 585.821838,661.687134 579.920044,667.738953 
	C563.419128,684.659180 547.578369,702.225891 531.567200,719.620300 
	C509.783295,743.286133 488.137054,767.078857 466.323730,790.717407 
	C455.524658,802.420044 444.577026,813.989441 433.522186,825.450989 
	C425.026123,834.259888 416.443542,834.433105 408.056824,825.529114 
	C399.160339,816.083984 390.803070,806.128052 382.281158,796.333557 
	C370.616974,782.927551 359.044861,769.441467 347.388092,756.028992 
	C325.573425,730.928772 303.725464,705.857422 281.893250,680.772400 
	C276.758240,674.872375 271.428314,669.124878 266.602356,662.981689 
	C264.743317,660.615173 263.375549,657.445068 262.913116,654.465820 
	C259.471924,632.295959 256.328491,610.080017 253.064789,587.882385 
	C248.389099,556.081116 243.579224,524.299072 239.038086,492.478638 
	C235.561661,468.118774 232.463455,443.705170 229.100006,419.328857 
	C226.852234,403.038300 224.434357,386.771179 222.044525,370.055420 
M475.813629,105.388916 
	C475.699371,105.551285 475.585114,105.713661 475.470886,105.876053 
	C475.754944,105.608627 476.039001,105.341202 475.756226,105.826920 
	C476.798218,108.852119 477.672699,111.947655 478.908844,114.891327 
	C488.393921,137.478088 497.943634,160.037689 507.484344,182.601044 
	C516.506836,203.938889 525.528809,225.276962 534.581726,246.601913 
	C537.193481,252.754150 539.911255,258.861389 542.619324,265.078522 
	C563.782715,257.529846 584.475952,250.148849 605.697693,242.579346 
	C604.241577,240.844299 603.263184,239.522186 602.128601,238.351288 
	C592.991394,228.921371 583.715637,219.623199 574.687439,210.090485 
	C547.364746,181.241135 520.112976,152.324478 492.886017,123.384689 
	C487.260223,117.404922 481.861023,111.211914 475.813629,105.388916 
M462.814880,628.208679 
	C480.812927,517.772583 498.810944,407.336517 516.799622,296.957611 
	C455.381897,286.994537 394.303650,277.086517 332.803741,267.110138 
	C348.879272,394.250793 364.915436,521.080322 380.953400,647.924072 
	C407.691681,647.924072 433.614136,647.924072 459.716125,647.924072 
	C460.734222,641.461548 461.709839,635.268738 462.814880,628.208679 
M319.080292,400.534912 
	C317.302155,387.040253 315.459167,373.553802 313.758972,360.049316 
	C309.818237,328.748718 305.892517,297.445984 302.106262,266.126526 
	C301.550659,261.530670 299.224548,259.476013 294.956299,258.223206 
	C274.926086,252.344009 254.969650,246.213593 234.475342,240.018234 
	C253.319748,373.099304 272.123596,505.893768 290.942596,638.795349 
	C310.577240,641.315430 329.692871,643.768921 349.671021,646.333130 
	C339.433746,564.229614 329.284424,482.831268 319.080292,400.534912 
M591.580627,425.022522 
	C599.324524,374.073120 607.068359,323.123718 614.911682,271.519989 
	C611.984680,272.647980 609.749512,273.575500 607.470032,274.377106 
	C591.679626,279.929749 575.790710,285.216522 560.109192,291.060272 
	C545.244873,296.599518 548.497559,292.780914 545.897461,308.094116 
	C540.013123,342.750214 534.407593,377.453888 528.760620,412.149902 
	C524.741394,436.844879 520.850525,461.560730 516.881165,486.263855 
	C513.958923,504.450165 511.015717,522.633118 508.058105,540.813721 
	C503.716888,567.499207 499.349457,594.180420 495.004181,620.865234 
	C493.656342,629.142517 492.344055,637.425598 490.889832,646.489258 
	C510.365723,644.300354 529.005676,642.219177 547.641235,640.099182 
	C551.265869,639.686829 555.926758,640.305603 558.186218,638.291199 
	C560.351868,636.360474 560.208008,631.654236 560.749939,628.117310 
	C564.263184,605.185120 567.819031,582.258057 571.100403,559.292114 
	C574.120239,538.156372 576.511047,516.927795 579.730835,495.824341 
	C583.295410,472.461823 587.486450,449.194916 591.580627,425.022522 
M480.224457,196.338013 
	C462.723389,154.333160 445.222351,112.328293 427.657471,70.170265 
	C398.390106,125.991867 369.386780,181.309830 340.180756,237.014404 
	C396.676422,246.254944 452.398102,255.368896 509.032745,264.632172 
	C499.247772,241.461304 489.871735,219.258759 480.224457,196.338013 
M377.030457,102.370209 
	C375.784515,102.451477 374.097504,102.037193 373.361908,102.691872 
	C367.094025,108.270386 361.147095,114.213142 354.821106,119.721901 
	C341.944031,130.935394 328.879120,141.932983 315.912415,153.043777 
	C300.125397,166.571136 284.343750,180.104828 268.592346,193.673615 
	C261.748657,199.569000 254.986221,205.558731 247.379791,212.211487 
	C251.692490,213.326096 255.143707,214.087418 258.514893,215.112015 
	C272.911224,219.487503 287.283752,223.941223 301.665283,228.365433 
	C309.097198,230.651733 309.151794,230.679367 312.657318,224.008286 
	C329.681152,191.611450 346.627533,159.173828 363.709381,126.807671 
	C367.928711,118.812981 372.552094,111.031509 377.030457,102.370209 
M405.307678,725.355225 
	C410.260956,739.768738 415.214233,754.182312 420.167511,768.595825 
	C420.549835,768.557129 420.932159,768.518372 421.314484,768.479614 
	C431.365234,738.557129 441.415985,708.634644 451.522675,678.545532 
	C430.175354,678.545532 409.738922,678.545532 388.798676,678.545532 
	C394.257324,694.184509 399.579559,709.432678 405.307678,725.355225 
M484.495117,726.015503 
	C500.885010,708.226318 517.274902,690.437073 533.664795,672.647888 
	C529.677917,672.198547 526.226257,672.977051 522.731262,673.362854 
	C511.344635,674.619751 499.949829,675.818604 488.541107,676.851013 
	C484.999847,677.171509 483.196808,678.535278 482.003296,682.104309 
	C474.624481,704.169556 466.923340,726.126892 459.401337,748.144653 
	C458.919678,749.554504 459.042297,751.170715 458.734161,754.126404 
	C467.820984,744.221313 475.926392,735.386047 484.495117,726.015503 
M355.412811,677.780334 
	C342.286102,675.997498 329.159393,674.214722 314.951782,672.285156 
	C337.104065,697.874939 358.160797,722.199219 379.217529,746.523438 
	C379.618683,746.274231 380.019867,746.025085 380.421021,745.775879 
	C372.257080,723.313049 364.093140,700.850220 355.412811,677.780334 
z"/>
<path fill="#010101" opacity="1.000000" stroke="none" 
	d="
M462.750183,628.642334 
	C461.709839,635.268738 460.734222,641.461548 459.716125,647.924072 
	C433.614136,647.924072 407.691681,647.924072 380.953400,647.924072 
	C364.915436,521.080322 348.879272,394.250793 332.803741,267.110138 
	C394.303650,277.086517 455.381897,286.994537 516.799622,296.957611 
	C498.810944,407.336517 480.812927,517.772583 462.750183,628.642334 
z"/>
<path fill="#020202" opacity="1.000000" stroke="none" 
	d="
M319.107666,400.983948 
	C329.284424,482.831268 339.433746,564.229614 349.671021,646.333130 
	C329.692871,643.768921 310.577240,641.315430 290.942596,638.795349 
	C272.123596,505.893768 253.319748,373.099304 234.475342,240.018234 
	C254.969650,246.213593 274.926086,252.344009 294.956299,258.223206 
	C299.224548,259.476013 301.550659,261.530670 302.106262,266.126526 
	C305.892517,297.445984 309.818237,328.748718 313.758972,360.049316 
	C315.459167,373.553802 317.302155,387.040253 319.107666,400.983948 
z"/>
<path fill="#020202" opacity="1.000000" stroke="none" 
	d="
M591.492615,425.454437 
	C587.486450,449.194916 583.295410,472.461823 579.730835,495.824341 
	C576.511047,516.927795 574.120239,538.156372 571.100403,559.292114 
	C567.819031,582.258057 564.263184,605.185120 560.749939,628.117310 
	C560.208008,631.654236 560.351868,636.360474 558.186218,638.291199 
	C555.926758,640.305603 551.265869,639.686829 547.641235,640.099182 
	C529.005676,642.219177 510.365723,644.300354 490.889832,646.489258 
	C492.344055,637.425598 493.656342,629.142517 495.004181,620.865234 
	C499.349457,594.180420 503.716888,567.499207 508.058105,540.813721 
	C511.015717,522.633118 513.958923,504.450165 516.881165,486.263855 
	C520.850525,461.560730 524.741394,436.844879 528.760620,412.149902 
	C534.407593,377.453888 540.013123,342.750214 545.897461,308.094116 
	C548.497559,292.780914 545.244873,296.599518 560.109192,291.060272 
	C575.790710,285.216522 591.679626,279.929749 607.470032,274.377106 
	C609.749512,273.575500 611.984680,272.647980 614.911682,271.519989 
	C607.068359,323.123718 599.324524,374.073120 591.492615,425.454437 
z"/>
<path fill="#010101" opacity="1.000000" stroke="none" 
	d="
M480.360046,196.697113 
	C489.871735,219.258759 499.247772,241.461304 509.032745,264.632172 
	C452.398102,255.368896 396.676422,246.254944 340.180756,237.014404 
	C369.386780,181.309830 398.390106,125.991867 427.657471,70.170265 
	C445.222351,112.328293 462.723389,154.333160 480.360046,196.697113 
z"/>
<path fill="#040404" opacity="1.000000" stroke="none" 
	d="
M476.357391,105.117195 
	C481.861023,111.211914 487.260223,117.404922 492.886017,123.384689 
	C520.112976,152.324478 547.364746,181.241135 574.687439,210.090485 
	C583.715637,219.623199 592.991394,228.921371 602.128601,238.351288 
	C603.263184,239.522186 604.241577,240.844299 605.697693,242.579346 
	C584.475952,250.148849 563.782715,257.529846 542.619324,265.078522 
	C539.911255,258.861389 537.193481,252.754150 534.581726,246.601913 
	C525.528809,225.276962 516.506836,203.938889 507.484344,182.601044 
	C497.943634,160.037689 488.393921,137.478088 478.908844,114.891327 
	C477.672699,111.947655 476.798218,108.852119 476.019348,105.500183 
	C476.282501,105.173439 476.357391,105.117195 476.357391,105.117195 
z"/>
<path fill="#050505" opacity="1.000000" stroke="none" 
	d="
M377.010071,102.761116 
	C372.552094,111.031509 367.928711,118.812981 363.709381,126.807671 
	C346.627533,159.173828 329.681152,191.611450 312.657318,224.008286 
	C309.151794,230.679367 309.097198,230.651733 301.665283,228.365433 
	C287.283752,223.941223 272.911224,219.487503 258.514893,215.112015 
	C255.143707,214.087418 251.692490,213.326096 247.379791,212.211487 
	C254.986221,205.558731 261.748657,199.569000 268.592346,193.673615 
	C284.343750,180.104828 300.125397,166.571136 315.912415,153.043777 
	C328.879120,141.932983 341.944031,130.935394 354.821106,119.721901 
	C361.147095,114.213142 367.094025,108.270386 373.361908,102.691872 
	C374.097504,102.037193 375.784515,102.451477 377.010071,102.761116 
z"/>
<path fill="#040404" opacity="1.000000" stroke="none" 
	d="
M405.104736,725.018066 
	C399.579559,709.432678 394.257324,694.184509 388.798676,678.545532 
	C409.738922,678.545532 430.175354,678.545532 451.522675,678.545532 
	C441.415985,708.634644 431.365234,738.557129 421.314484,768.479614 
	C420.932159,768.518372 420.549835,768.557129 420.167511,768.595825 
	C415.214233,754.182312 410.260956,739.768738 405.104736,725.018066 
z"/>
<path fill="#050505" opacity="1.000000" stroke="none" 
	d="
M484.263458,726.283081 
	C475.926392,735.386047 467.820984,744.221313 458.734161,754.126404 
	C459.042297,751.170715 458.919678,749.554504 459.401337,748.144653 
	C466.923340,726.126892 474.624481,704.169556 482.003296,682.104309 
	C483.196808,678.535278 484.999847,677.171509 488.541107,676.851013 
	C499.949829,675.818604 511.344635,674.619751 522.731262,673.362854 
	C526.226257,672.977051 529.677917,672.198547 533.664795,672.647888 
	C517.274902,690.437073 500.885010,708.226318 484.263458,726.283081 
z"/>
<path fill="#050505" opacity="1.000000" stroke="none" 
	d="
M355.671021,678.083862 
	C364.093140,700.850220 372.257080,723.313049 380.421021,745.775879 
	C380.019867,746.025085 379.618683,746.274231 379.217529,746.523438 
	C358.160797,722.199219 337.104065,697.874939 314.951782,672.285156 
	C329.159393,674.214722 342.286102,675.997498 355.671021,678.083862 
z"/>
<path fill="#040404" opacity="1.000000" stroke="none" 
	d="
M476.302765,105.123611 
	C476.039001,105.341202 475.754944,105.608627 475.470886,105.876038 
	C475.585114,105.713661 475.699371,105.551285 476.085510,105.253052 
	C476.357391,105.117195 476.282501,105.173439 476.302765,105.123611 
z"/>
</svg>